HIERARCHY
ROOT Hips
{
	OFFSET 0.327225 85.456291 8.060652
	CHANNELS 6 Xposition Yposition Zposition Zrotation Yrotation Xrotation 
	JOINT Spine
	{
		OFFSET 0.000000 8.814246 -2.080107
		CHANNELS 3 Zrotation Yrotation Xrotation
		JOINT Spine1
		{
			OFFSET -0.000000 8.844141 0.000000
			CHANNELS 3 Zrotation Yrotation Xrotation
			JOINT Spine2
			{
				OFFSET 0.000000 11.682268 0.000000
				CHANNELS 3 Zrotation Yrotation Xrotation
				JOINT Spine3
				{
					OFFSET 0.000000 11.746700 0.000000
					CHANNELS 3 Zrotation Yrotation Xrotation
					JOINT Neck
					{
						OFFSET 0.000000 17.658264 0.000000
						CHANNELS 3 Zrotation Yrotation Xrotation
						JOINT Neck1
						{
							OFFSET 0.000000 5.101515 0.000000
							CHANNELS 3 Zrotation Yrotation Xrotation
							JOINT Head
							{
								OFFSET -0.000000 5.101515 -0.000000
								CHANNELS 3 Zrotation Yrotation Xrotation
								JOINT HeadEnd
								{
									OFFSET 0.000000 11.655085 0.000000
									CHANNELS 3 Zrotation Yrotation Xrotation
									End Site
									{
										OFFSET 0.000000 0.000000 0.000000
									}
								}
							}
						}
					}
					JOINT RightShoulder
					{
						OFFSET -2.625389 11.175210 -0.000000
						CHANNELS 3 Zrotation Yrotation Xrotation
						JOINT RightArm
						{
							OFFSET 0.000000 10.434715 0.000000
							CHANNELS 3 Zrotation Yrotation Xrotation
							JOINT RightForeArm
							{
								OFFSET -0.000000 29.628420 -0.000000
								CHANNELS 3 Zrotation Yrotation Xrotation
								JOINT RightHand
								{
									OFFSET 0.000000 22.857611 -0.000000
									CHANNELS 3 Zrotation Yrotation Xrotation
									JOINT RightHandThumb1
									{
										OFFSET -2.867323 3.959563 2.944291
										CHANNELS 3 Zrotation Yrotation Xrotation
										JOINT RightHandThumb2
										{
											OFFSET -0.000000 3.350399 0.000000
											CHANNELS 3 Zrotation Yrotation Xrotation
											JOINT RightHandThumb3
											{
												OFFSET -0.000000 3.756509 0.000000
												CHANNELS 3 Zrotation Yrotation Xrotation
												JOINT RightHandThumb4
												{
													OFFSET -0.000000 3.147345 0.000000
													CHANNELS 3 Zrotation Yrotation Xrotation
													End Site
													{
														OFFSET 0.000000 0.000000 0.000000
													}
												}
											}
										}
									}
									JOINT RightHandIndex1
									{
										OFFSET -0.086752 10.030893 2.345280
										CHANNELS 3 Zrotation Yrotation Xrotation
										JOINT RightHandIndex2
										{
											OFFSET -0.000000 4.061090 -0.000000
											CHANNELS 3 Zrotation Yrotation Xrotation
											JOINT RightHandIndex3
											{
												OFFSET 0.000000 3.248873 -0.000000
												CHANNELS 3 Zrotation Yrotation Xrotation
												JOINT RightHandIndex4
												{
													OFFSET 0.000000 2.639709 -0.000000
													CHANNELS 3 Zrotation Yrotation Xrotation
													End Site
													{
														OFFSET 0.000000 0.000000 0.000000
													}
												}
											}
										}
									}
									JOINT RightHandMiddle1
									{
										OFFSET 0.104102 9.502952 0.006768
										CHANNELS 3 Zrotation Yrotation Xrotation
										JOINT RightHandMiddle2
										{
											OFFSET -0.000000 4.568727 -0.000000
											CHANNELS 3 Zrotation Yrotation Xrotation
											JOINT RightHandMiddle3
											{
												OFFSET -0.000000 3.654981 -0.000000
												CHANNELS 3 Zrotation Yrotation Xrotation
												JOINT RightHandMiddle4
												{
													OFFSET -0.000000 2.741236 -0.000000
													CHANNELS 3 Zrotation Yrotation Xrotation
													End Site
													{
														OFFSET 0.000000 0.000000 0.000000
													}
												}
											}
										}
									}
									JOINT RightHandRing1
									{
										OFFSET 0.086752 8.921708 -2.267442
										CHANNELS 3 Zrotation Yrotation Xrotation
										JOINT RightHandRing2
										{
											OFFSET -0.000000 4.061090 0.000000
											CHANNELS 3 Zrotation Yrotation Xrotation
											JOINT RightHandRing3
											{
												OFFSET 0.000000 3.654981 -0.000000
												CHANNELS 3 Zrotation Yrotation Xrotation
												JOINT RightHandRing4
												{
													OFFSET 0.000000 2.741236 -0.000000
													CHANNELS 3 Zrotation Yrotation Xrotation
													End Site
													{
														OFFSET 0.000000 0.000000 0.000000
													}
												}
											}
										}
									}
									JOINT RightHandPinky1
									{
										OFFSET -0.173504 7.976997 -4.467199
										CHANNELS 3 Zrotation Yrotation Xrotation
										JOINT RightHandPinky2
										{
											OFFSET -0.000000 3.350399 0.000000
											CHANNELS 3 Zrotation Yrotation Xrotation
											JOINT RightHandPinky3
											{
												OFFSET 0.000000 2.842763 -0.000000
												CHANNELS 3 Zrotation Yrotation Xrotation
												JOINT RightHandPinky4
												{
													OFFSET -0.000000 2.639709 0.000000
													CHANNELS 3 Zrotation Yrotation Xrotation
													End Site
													{
														OFFSET 0.000000 0.000000 0.000000
													}
												}
											}
										}
									}
									JOINT RightForeArmEnd
									{
										OFFSET 0.000000 0.000000 0.000000
										CHANNELS 3 Zrotation Yrotation Xrotation
										End Site
										{
											OFFSET 0.000000 0.000000 0.000000
										}
									}
								}
								JOINT RightArmEnd
								{
									OFFSET 0.000000 0.000000 0.000000
									CHANNELS 3 Zrotation Yrotation Xrotation
									End Site
									{
										OFFSET 0.000000 0.000000 0.000000
									}
								}
							}
						}
					}
					JOINT LeftShoulder
					{
						OFFSET 2.625389 11.175210 0.000000
						CHANNELS 3 Zrotation Yrotation Xrotation
						JOINT LeftArm
						{
							OFFSET -0.000000 10.813635 0.000000
							CHANNELS 3 Zrotation Yrotation Xrotation
							JOINT LeftForeArm
							{
								OFFSET 0.000000 28.724781 -0.000000
								CHANNELS 3 Zrotation Yrotation Xrotation
								JOINT LeftHand
								{
									OFFSET 0.644384 25.716167 -0.328871
									CHANNELS 3 Zrotation Yrotation Xrotation
									JOINT LeftHandThumb1
									{
										OFFSET 2.867323 3.959563 2.944291
										CHANNELS 3 Zrotation Yrotation Xrotation
										JOINT LeftHandThumb2
										{
											OFFSET 0.000000 3.350399 -0.000000
											CHANNELS 3 Zrotation Yrotation Xrotation
											JOINT LeftHandThumb3
											{
												OFFSET 0.000000 3.756509 0.000000
												CHANNELS 3 Zrotation Yrotation Xrotation
												JOINT LeftHandThumb4
												{
													OFFSET 0.000000 3.100000 0.000000
													CHANNELS 3 Zrotation Yrotation Xrotation
													End Site
													{
														OFFSET 0.000000 0.000000 0.000000
													}
												}
											}
										}
									}
									JOINT LeftHandIndex1
									{
										OFFSET 0.086752 10.030893 2.345280
										CHANNELS 3 Zrotation Yrotation Xrotation
										JOINT LeftHandIndex2
										{
											OFFSET 0.000000 4.061090 0.000000
											CHANNELS 3 Zrotation Yrotation Xrotation
											JOINT LeftHandIndex3
											{
												OFFSET -0.000000 3.248873 -0.000000
												CHANNELS 3 Zrotation Yrotation Xrotation
												JOINT LeftHandIndex4
												{
													OFFSET -0.000000 2.639709 -0.000000
													CHANNELS 3 Zrotation Yrotation Xrotation
													End Site
													{
														OFFSET 0.000000 0.000000 0.000000
													}
												}
											}
										}
									}
									JOINT LeftHandMiddle1
									{
										OFFSET -0.104102 9.502952 0.006768
										CHANNELS 3 Zrotation Yrotation Xrotation
										JOINT LeftHandMiddle2
										{
											OFFSET 0.000000 4.568727 0.000000
											CHANNELS 3 Zrotation Yrotation Xrotation
											JOINT LeftHandMiddle3
											{
												OFFSET -0.000000 3.654981 -0.000000
												CHANNELS 3 Zrotation Yrotation Xrotation
												JOINT LeftHandMiddle4
												{
													OFFSET -0.000000 2.741236 -0.000000
													CHANNELS 3 Zrotation Yrotation Xrotation
													End Site
													{
														OFFSET 0.000000 0.000000 0.000000
													}
												}
											}
										}
									}
									JOINT LeftHandRing1
									{
										OFFSET -0.086752 8.921708 -2.267442
										CHANNELS 3 Zrotation Yrotation Xrotation
										JOINT LeftHandRing2
										{
											OFFSET 0.000000 4.061090 0.000000
											CHANNELS 3 Zrotation Yrotation Xrotation
											JOINT LeftHandRing3
											{
												OFFSET -0.000000 3.654981 -0.000000
												CHANNELS 3 Zrotation Yrotation Xrotation
												JOINT LeftHandRing4
												{
													OFFSET -0.000000 2.741236 -0.000000
													CHANNELS 3 Zrotation Yrotation Xrotation
													End Site
													{
														OFFSET 0.000000 0.000000 0.000000
													}
												}
											}
										}
									}
									JOINT LeftHandPinky1
									{
										OFFSET 0.173504 7.976997 -4.467199
										CHANNELS 3 Zrotation Yrotation Xrotation
										JOINT LeftHandPinky2
										{
											OFFSET 0.000000 3.350399 0.000000
											CHANNELS 3 Zrotation Yrotation Xrotation
											JOINT LeftHandPinky3
											{
												OFFSET 0.000000 2.842763 0.000000
												CHANNELS 3 Zrotation Yrotation Xrotation
												JOINT LeftHandPinky4
												{
													OFFSET 0.000000 2.639709 -0.000000
													CHANNELS 3 Zrotation Yrotation Xrotation
													End Site
													{
														OFFSET 0.000000 0.000000 0.000000
													}
												}
											}
										}
									}
									JOINT LeftForeArmEnd
									{
										OFFSET 0.000000 0.000000 0.000000
										CHANNELS 3 Zrotation Yrotation Xrotation
										End Site
										{
											OFFSET 0.000000 0.000000 0.000000
										}
									}
								}
								JOINT LeftArmEnd
								{
									OFFSET 0.000000 0.000000 0.000000
									CHANNELS 3 Zrotation Yrotation Xrotation
									End Site
									{
										OFFSET 0.000000 0.000000 0.000000
									}
								}
							}
						}
					}
				}
			}
		}
	}
	JOINT RightUpLeg
	{
		OFFSET -11.289943 0.000000 -0.000000
		CHANNELS 3 Zrotation Yrotation Xrotation
		JOINT RightLeg
		{
			OFFSET -0.000000 -38.200325 -0.000000
			CHANNELS 3 Zrotation Yrotation Xrotation
			JOINT RightFoot
			{
				OFFSET -0.000000 -39.900856 0.000000
				CHANNELS 3 Zrotation Yrotation Xrotation
				JOINT RightToeBase
				{
					OFFSET 0.000000 -0.000000 15.261641
					CHANNELS 3 Zrotation Yrotation Xrotation
					JOINT RightToeBaseEnd
					{
						OFFSET -0.000000 -0.000000 7.370709
						CHANNELS 3 Zrotation Yrotation Xrotation
						End Site
						{
							OFFSET 0.000000 0.000000 0.000000
						}
					}
				}
				JOINT RightLegEnd
				{
					OFFSET 0.000000 0.000000 0.000000
					CHANNELS 3 Zrotation Yrotation Xrotation
					End Site
					{
						OFFSET 0.000000 0.000000 0.000000
					}
				}
			}
			JOINT RightUpLegEnd
			{
				OFFSET 0.000000 0.000000 0.000000
				CHANNELS 3 Zrotation Yrotation Xrotation
				End Site
				{
					OFFSET 0.000000 0.000000 0.000000
				}
			}
		}
	}
	JOINT LeftUpLeg
	{
		OFFSET 11.315661 -0.000000 0.000000
		CHANNELS 3 Zrotation Yrotation Xrotation
		JOINT LeftLeg
		{
			OFFSET -0.000000 -38.200325 -0.000000
			CHANNELS 3 Zrotation Yrotation Xrotation
			JOINT LeftFoot
			{
				OFFSET -0.000000 -39.900856 0.000000
				CHANNELS 3 Zrotation Yrotation Xrotation
				JOINT LeftToeBase
				{
					OFFSET 0.000000 -0.000000 15.261641
					CHANNELS 3 Zrotation Yrotation Xrotation
					JOINT LeftToeBaseEnd
					{
						OFFSET -0.000000 0.000000 7.539996
						CHANNELS 3 Zrotation Yrotation Xrotation
						End Site
						{
							OFFSET 0.000000 0.000000 0.000000
						}
					}
				}
				JOINT LeftLegEnd
				{
					OFFSET 0.000000 0.000000 0.000000
					CHANNELS 3 Zrotation Yrotation Xrotation
					End Site
					{
						OFFSET 0.000000 0.000000 0.000000
					}
				}
			}
			JOINT LeftUpLegEnd
			{
				OFFSET 0.000000 0.000000 0.000000
				CHANNELS 3 Zrotation Yrotation Xrotation
				End Site
				{
					OFFSET 0.000000 0.000000 0.000000
				}
			}
		}
	}
}
MOTION
Frames: 4
Frame Time: 0.016667
0.327225 85.456291 8.060652 -1.060160 -0.454608 -23.207590 2.322709 -0.297220 12.236113 0.341520 -0.185955 6.095392 -2.927263 -0.107008 18.660194 -3.766547 -0.127707 10.148421 -8.554237 3.011372 10.670642 -1.052736 0.746531 -1.072306 -1.427619 -1.392408 -19.988150 0.000000 0.000000 0.000000 91.634735 -0.442339 15.425826 54.665524 -30.476999 24.470922 -0.226760 15.539892 21.119818 5.921650 20.191023 -2.405218 13.495595 32.597275 68.996590 0.000003 0.000003 0.000009 0.000134 -0.000001 0.000005 0.000000 0.000000 0.000000 13.796139 -10.938026 1.277707 9.837293 0.396116 1.450871 9.837299 -0.105893 1.372970 0.000000 0.000000 0.000000 13.018492 -5.780196 0.547168 9.259837 0.477044 0.562421 9.259580 -0.040827 0.482464 0.000000 0.000000 0.000000 14.759333 1.948519 1.684468 10.371669 -0.929828 -0.808298 10.370477 0.055660 -0.609709 0.000000 0.000000 0.000000 15.656369 10.308870 0.915056 10.776875 -1.765082 -2.455533 10.769448 0.171573 -2.081882 0.000000 0.000000 0.000000 0.000000 0.000000 0.000000 0.000000 0.000000 0.000000 -92.594154 0.517031 10.482300 -55.364445 20.044870 9.159415 -0.966445 -10.157828 39.026314 -1.252406 -30.847612 -11.535672 -13.450125 -32.590797 68.901459 0.011028 0.011022 -0.022262 0.011023 0.011028 -0.022273 0.000000 0.000000 0.000000 -11.776063 -6.462783 0.977572 -8.183229 0.418838 -1.217398 -8.182890 -0.087328 -1.146339 0.000000 0.000000 0.000000 -11.505368 -1.486834 0.105365 -8.159037 0.488683 -0.513053 -8.158793 0.006084 -0.433014 0.000000 0.000000 0.000000 -14.670410 7.057579 0.049814 -10.405230 -0.938801 0.816612 -10.403862 0.035557 0.635699 0.000000 0.000000 0.000000 -17.068953 15.932078 -0.778814 -11.779098 -1.717910 2.681325 -11.773773 0.235106 2.277516 0.000000 0.000000 0.000000 0.000000 0.000000 0.000000 0.000000 0.000000 0.000000 -5.285096 -1.941737 14.891479 -0.561212 -0.964231 30.047485 4.622950 -4.876317 6.481491 -0.907080 1.864290 -16.513636 0.000000 0.000000 0.000000 0.000000 0.000000 0.000000 0.000000 0.000000 0.000000 4.159544 -1.943718 10.882134 0.172503 0.240085 35.792629 -0.279231 6.748767 5.369925 0.530027 -0.512076 -20.503864 0.000000 0.000000 0.000000 0.000000 0.000000 0.000000 0.000000 0.000000 0.000000 
0.277138 85.289268 7.332988 -0.760361 -0.166017 -22.484364 1.394786 -0.248844 12.052717 0.656326 -0.171506 7.025135 -3.089291 0.253689 17.350124 -2.867744 -0.206776 9.166629 -9.553945 4.699919 10.720466 -2.057089 0.920848 -1.777387 -1.462763 -0.386049 -19.161308 0.000000 0.000000 0.000000 92.062462 -0.180808 15.091352 54.485401 -28.721802 23.019564 0.254239 16.686485 20.252621 5.343588 17.874704 -0.417352 -5.609766 0.877657 47.102848 -0.000008 0.000008 12.600273 0.000014 0.000054 9.169598 0.000017 0.000005 -0.000019 14.722928 0.874644 -0.979633 9.264847 0.020896 0.209728 9.343757 0.075024 0.186949 -0.000017 -0.000000 -0.000000 12.743194 0.339103 -2.954463 8.451470 -0.020449 0.059701 8.296436 0.018974 0.062637 0.000012 -0.000004 0.000024 13.110888 -0.426510 -2.825551 9.632130 0.036315 0.005190 9.440210 -0.039119 0.000634 -0.000004 0.000610 0.000002 13.152627 -1.146718 -4.818295 10.125949 -0.036759 0.311559 9.903983 -0.229056 0.197118 -0.000710 0.000009 0.000054 0.000000 0.000000 0.000000 0.000000 0.000000 0.000000 -90.343094 -0.270473 10.814122 -57.783821 21.080774 6.516484 -1.064909 -9.386101 40.470127 0.725111 -29.738127 -6.305513 5.918349 -0.861384 47.086979 0.000016 0.000021 13.051171 -0.000094 -0.000004 9.525703 0.000237 -0.000017 0.000239 -12.110509 0.844419 -0.295962 -8.836121 -0.052877 -0.180955 -8.828438 0.027684 -0.169867 0.000014 0.000423 0.000020 -12.468743 0.353114 -2.576811 -8.321194 -0.048100 -0.076082 -8.165682 0.002821 -0.058735 0.000631 -0.000041 0.000066 -14.978354 -0.411350 -3.239980 -9.353367 0.077167 0.113114 -9.319303 -0.012699 0.103296 0.000127 -0.000009 -0.000002 -15.722287 -1.197574 -4.814272 -9.939826 0.173992 0.382101 -9.699164 -0.062310 0.356705 0.000464 -0.000015 -0.000052 0.000000 0.000000 0.000000 0.000000 0.000000 0.000000 -6.601983 1.177801 14.105610 -0.423306 -0.863261 27.125923 3.432297 -4.038304 7.614370 -0.906501 1.760629 -16.820284 0.000000 0.000000 0.000000 0.000000 0.000000 0.000000 0.000000 0.000000 0.000000 3.403532 -2.356592 10.905824 0.295198 0.261723 35.941017 -0.236872 7.907190 4.480497 0.338681 -0.888790 -19.982708 0.000000 0.000000 0.000000 0.000000 0.000000 0.000000 0.000000 0.000000 0.000000 
0.271041 85.305214 7.330979 -0.748793 -0.142818 -22.441795 1.436885 -0.245330 12.039969 0.638724 -0.155342 7.063101 -3.079775 0.173659 17.243336 -2.807567 -0.205635 9.081456 -9.548380 4.705095 10.807308 -1.980657 0.984672 -1.838323 -1.487031 -0.439483 -19.182505 0.000000 0.000000 0.000000 92.035034 -0.115052 15.084771 54.460381 -29.017757 22.993284 0.257001 16.625328 20.370985 5.186510 17.992659 -0.782624 -5.616156 0.871181 47.097603 0.000001 0.000012 12.576830 0.000012 0.000054 9.184430 0.000034 0.000012 -0.000041 14.456717 0.924408 -1.452983 9.102200 0.016831 0.185075 9.199937 0.072156 0.161813 -0.000014 0.000005 -0.000010 12.545113 0.359312 -3.373746 8.286506 -0.024529 0.053990 8.133391 0.018763 0.057055 0.000030 -0.000039 0.000020 12.932745 -0.451618 -3.222949 9.433043 0.046588 0.006178 9.255399 -0.036210 0.003133 -0.000024 0.000385 -0.000016 13.033925 -1.220419 -5.116509 9.912046 -0.010614 0.293576 9.682672 -0.222014 0.183720 -0.000690 0.000011 0.000024 0.000000 0.000000 0.000000 0.000000 0.000000 0.000000 -90.421547 -0.287575 10.762348 -58.039188 21.305613 6.585311 -1.094543 -9.416941 40.451317 0.848267 -29.702452 -6.314802 5.953607 -0.868274 47.098885 0.000016 0.000036 13.105452 -0.000109 -0.000002 9.564589 0.000340 -0.000002 0.000497 -11.890471 0.897302 -0.411208 -8.824584 -0.054474 -0.152591 -8.833601 0.029753 -0.147741 0.000015 0.000442 0.000015 -12.295119 0.375448 -2.660505 -8.302308 -0.050930 -0.068149 -8.159888 0.002382 -0.051938 0.000572 -0.000037 0.000015 -14.959850 -0.438402 -3.295040 -9.378903 0.082543 0.107328 -9.320070 -0.012118 0.098013 0.000239 0.000010 0.000003 -15.791762 -1.278789 -4.835642 -9.966103 0.187239 0.370318 -9.716781 -0.059545 0.341666 0.000525 0.000005 -0.000052 0.000000 0.000000 0.000000 0.000000 0.000000 0.000000 -6.523842 1.140869 13.983088 -0.420590 -0.852820 27.146610 3.316331 -3.942263 7.743466 -0.906744 1.730335 -16.854723 0.000000 0.000000 0.000000 0.000000 0.000000 0.000000 0.000000 0.000000 0.000000 3.349404 -2.445632 10.926539 0.299294 0.263611 35.916199 -0.190699 7.941845 4.569255 0.335652 -0.867756 -20.102551 0.000000 0.000000 0.000000 0.000000 0.000000 0.000000 0.000000 0.000000 0.000000 
0.254478 85.331253 7.341200 -0.713686 -0.114110 -22.387905 1.437050 -0.240196 12.000286 0.639400 -0.151810 7.009485 -3.059736 0.070531 17.190584 -2.748827 -0.231832 9.014408 -9.572585 4.681568 10.934285 -1.919428 1.022161 -1.836097 -1.491533 -0.478698 -19.215199 0.000000 0.000000 0.000000 92.058548 -0.100086 15.019039 54.406918 -29.193531 23.069700 0.233998 16.464821 20.343954 5.108434 17.729095 -0.975180 -5.588652 0.864590 47.085888 0.000004 0.000014 12.509104 0.000010 0.000056 9.158853 0.000034 0.000012 -0.000041 14.380833 0.938472 -1.832992 9.035676 0.015956 0.162232 9.149367 0.071653 0.139624 -0.000013 0.000004 -0.000011 12.500599 0.365115 -3.689377 8.206918 -0.026173 0.048840 8.051852 0.018431 0.052327 0.000029 -0.000051 0.000023 12.795980 -0.459272 -3.487010 9.277698 0.053168 0.003717 9.119679 -0.033188 0.002215 -0.000025 0.000110 -0.000015 12.864811 -1.243924 -5.281629 9.708823 0.009754 0.255142 9.485323 -0.211348 0.156075 -0.000719 0.000010 0.000009 0.000000 0.000000 0.000000 0.000000 0.000000 0.000000 -90.456543 -0.288287 10.719016 -58.141052 21.333122 6.678424 -1.120459 -9.373604 40.399807 0.644318 -29.456224 -6.446562 5.977157 -0.872708 47.105537 0.000014 0.000037 13.140417 -0.000118 -0.000002 9.587842 0.000297 -0.000001 0.000667 -11.676501 0.913317 -0.470392 -8.803926 -0.055188 -0.131052 -8.824138 0.031106 -0.129909 0.000012 0.000388 0.000016 -12.130382 0.382676 -2.705497 -8.283359 -0.051962 -0.062166 -8.143054 0.001961 -0.046371 0.000599 -0.000039 -0.000017 -14.917805 -0.448241 -3.335596 -9.393559 0.084625 0.105101 -9.314515 -0.011422 0.095686 0.000367 0.000011 0.000003 -15.839384 -1.309116 -4.872055 -9.989151 0.194273 0.371080 -9.729195 -0.055842 0.337408 0.000557 0.000004 -0.000053 0.000000 0.000000 0.000000 0.000000 0.000000 0.000000 -6.464941 1.105290 13.995384 -0.416767 -0.841988 26.993338 3.215181 -3.932809 7.909077 -0.909291 1.703733 -16.906933 0.000000 0.000000 0.000000 0.000000 0.000000 0.000000 0.000000 0.000000 0.000000 3.280603 -2.521088 11.031833 0.300413 0.270433 35.653069 -0.132681 8.010265 4.743438 0.339245 -0.850179 -20.183052 0.000000 0.000000 0.000000 0.000000 0.000000 0.000000 0.000000 0.000000 0.000000 
